<?xml version="1.0" standalone="no"?><!DOCTYPE svg PUBLIC "-//W3C//DTD SVG 1.1//EN" "http://www.w3.org/Graphics/SVG/1.1/DTD/svg11.dtd"><svg t="1644223601161" class="icon" viewBox="0 0 1024 1024" version="1.1" xmlns="http://www.w3.org/2000/svg" p-id="11256" xmlns:xlink="http://www.w3.org/1999/xlink" width="200" height="200"><defs><style type="text/css"></style></defs><path d="M239.5668 708.5281 325.3268 679.936c19.0556 95.2955 69.4241 141.5844 151.1199 138.8636 127.9519-5.4395 193.2954-118.4317 196.0315-338.9757-40.8484 78.9596-108.9116 118.4317-204.2071 118.4317-152.4797-13.5997-235.52-103.4557-249.1197-269.5363 10.88-176.9595 99.3761-272.256 265.4556-285.8885 190.592-2.7197 284.5112 132.0643 281.7915 404.3203 0 288.6083-99.3761 434.2723-298.1274 436.992C348.4621 878.7036 272.2386 820.1759 239.5668 708.5281zM672.4782 373.6484c0-171.52-65.3435-255.9365-196.0315-253.2157-103.4721 8.1756-159.2955 74.88-167.4557 200.1121 5.4395 125.2475 61.2639 191.9683 167.4557 200.1285C582.6222 520.6723 647.9657 471.6636 672.4782 373.6484z" p-id="11257"></path></svg>