<?xml version="1.0" standalone="no"?><!DOCTYPE svg PUBLIC "-//W3C//DTD SVG 1.1//EN" "http://www.w3.org/Graphics/SVG/1.1/DTD/svg11.dtd"><svg t="1643888514352" class="icon" viewBox="0 0 1024 1024" version="1.1" xmlns="http://www.w3.org/2000/svg" p-id="8044" xmlns:xlink="http://www.w3.org/1999/xlink" width="200" height="200"><defs><style type="text/css"></style></defs><path d="M382.5101 447.1521c-81.6957-38.1123-125.2475-99.3597-130.688-183.7763 10.88-138.8483 92.5604-212.3684 245.0401-220.544 147.0075 10.8964 227.328 84.4165 240.9595 220.544-5.4559 87.1363-46.3043 148.3837-122.5277 183.7763 100.736 38.1276 153.8243 111.6477 159.2801 220.544-8.1756 138.8636-100.7524 211.0075-277.7119 216.448-179.712-5.4395-272.2724-80.3041-277.7119-224.6236C227.3106 553.344 281.7741 482.5436 382.5101 447.1521zM492.7826 479.8239c-108.9116 5.4559-168.8156 65.3599-179.6956 179.6956 10.88 98.0163 72.1439 151.1199 183.7763 159.2801 111.616-8.1603 172.8799-58.5277 183.7752-151.1035C672.4618 547.9035 609.8381 485.2797 492.7826 479.8239zM496.8622 116.352c-89.856 5.4395-138.8636 51.7284-147.0239 138.8483 2.7197 100.7524 51.7284 153.8396 147.0239 159.2801 89.8396-2.7197 137.4874-53.0883 142.9432-151.1035C631.6298 173.5363 583.9821 124.5276 496.8622 116.352z" p-id="8045"></path></svg>